<?xml version="1.0" encoding="UTF-8" standalone="no"?>
<!-- Created with Inkscape (http://www.inkscape.org/) -->

<svg
   version="1.1"
   id="svg1"
   width="2565.6799"
   height="1570.9733"
   viewBox="0 0 2565.6799 1570.9733"
   sodipodi:docname="logo.ai"
   xmlns:inkscape="http://www.inkscape.org/namespaces/inkscape"
   xmlns:sodipodi="http://sodipodi.sourceforge.net/DTD/sodipodi-0.dtd"
   xmlns="http://www.w3.org/2000/svg"
   xmlns:svg="http://www.w3.org/2000/svg">
  <defs
     id="defs1">
    <clipPath
       clipPathUnits="userSpaceOnUse"
       id="clipPath2">
      <path
         d="M 0,1178.232 H 1924.262 V 0 H 0 Z"
         transform="translate(-523.29611,-297.01451)"
         id="path2" />
    </clipPath>
    <clipPath
       clipPathUnits="userSpaceOnUse"
       id="clipPath4">
      <path
         d="M 0,1178.232 H 1924.262 V 0 H 0 Z"
         transform="translate(-784.16574,-603.79712)"
         id="path4" />
    </clipPath>
    <clipPath
       clipPathUnits="userSpaceOnUse"
       id="clipPath6">
      <path
         d="M 0,1178.232 H 1924.262 V 0 H 0 Z"
         transform="translate(-804.1222,-649.97102)"
         id="path6" />
    </clipPath>
    <clipPath
       clipPathUnits="userSpaceOnUse"
       id="clipPath8">
      <path
         d="M 0,1178.232 H 1924.262 V 0 H 0 Z"
         transform="translate(-1358.2528,-649.97102)"
         id="path8" />
    </clipPath>
    <clipPath
       clipPathUnits="userSpaceOnUse"
       id="clipPath10">
      <path
         d="M 0,1178.232 H 1924.262 V 0 H 0 Z"
         transform="translate(-889.01395,-650.90672)"
         id="path10" />
    </clipPath>
    <clipPath
       clipPathUnits="userSpaceOnUse"
       id="clipPath12">
      <path
         d="M 0,1178.232 H 1924.262 V 0 H 0 Z"
         transform="translate(-1035.9702,-651.09051)"
         id="path12" />
    </clipPath>
    <clipPath
       clipPathUnits="userSpaceOnUse"
       id="clipPath14">
      <path
         d="M 0,1178.232 H 1924.262 V 0 H 0 Z"
         transform="translate(-1220.3397,-651.53622)"
         id="path14" />
    </clipPath>
    <clipPath
       clipPathUnits="userSpaceOnUse"
       id="clipPath16">
      <path
         d="M 0,1178.232 H 1924.262 V 0 H 0 Z"
         transform="translate(-1440.1222,-652.23522)"
         id="path16" />
    </clipPath>
    <clipPath
       clipPathUnits="userSpaceOnUse"
       id="clipPath18">
      <path
         d="M 0,1178.232 H 1924.262 V 0 H 0 Z"
         transform="translate(-1625.2092,-651.09051)"
         id="path18" />
    </clipPath>
    <clipPath
       clipPathUnits="userSpaceOnUse"
       id="clipPath20">
      <path
         d="M 0,1178.232 H 1924.262 V 0 H 0 Z"
         transform="translate(-671.07872,-304.84053)"
         id="path20" />
    </clipPath>
    <clipPath
       clipPathUnits="userSpaceOnUse"
       id="clipPath22">
      <path
         d="M 0,1178.232 H 1924.262 V 0 H 0 Z"
         transform="translate(-854.20922,-173.94933)"
         id="path22" />
    </clipPath>
  </defs>
  <sodipodi:namedview
     id="namedview1"
     pagecolor="#ffffff"
     bordercolor="#000000"
     borderopacity="0.25"
     inkscape:showpageshadow="2"
     inkscape:pageopacity="0.0"
     inkscape:pagecheckerboard="0"
     inkscape:deskcolor="#d1d1d1">
    <inkscape:page
       x="0"
       y="0"
       inkscape:label="1"
       id="page1"
       width="2565.6799"
       height="1570.9733"
       margin="158.40401 226.73334 201.8 260.052"
       bleed="0" />
  </sodipodi:namedview>
  <g
     id="layer-MC0"
     inkscape:groupmode="layer"
     inkscape:label="图层 1">
    <path
       id="path1"
       d="m 0,0 c -9.391,-165.391 -134.609,-151.826 -148.174,-151.826 -60,6.783 -74.609,27.652 -99.13,52.174 -53.739,67.304 -32.348,145.565 -24,184.696 22.434,80.869 117.391,163.826 117.391,163.826 l 27.13,-27.131 C -30.261,129.391 6.261,39.13 0,0 M 83.106,496.914 -118.696,310.696 c 0,0 -105.652,110.347 -122.869,198 -5.739,34.434 -14.609,120 61.565,173.739 25.043,16.174 69.391,31.826 112.174,14.087 21.913,-10.957 89.739,-43.305 58.956,-142.957 -19.304,-40.174 -64.695,-67.304 -100.173,-25.043 -4.859,11.74 -11.155,20.624 -6.234,38.087 2.691,9.548 8.548,17.964 16.57,23.801 5.853,4.26 11.082,5.639 29.316,4.894 -2.968,10.729 -42.286,25.851 -61.506,-11.081 -5.188,-9.969 -7.384,-21.201 -6.977,-32.432 0.788,-21.751 7.705,-48.936 42.396,-61.356 19.826,-3.652 78.261,-19.826 118.435,57.391 9.913,30.261 32.869,128.87 -82.435,175.304 -27.652,7.305 -123.652,27.653 -205.565,-72.521 -31.305,-37.566 -86.609,-160.696 17.739,-292.696 0,0 48.521,-58.956 57.391,-66.261 8.87,-7.304 23.478,-25.043 23.478,-27.13 -2.087,-3.652 -29.739,-29.218 -41.217,-39.652 0,0 -104.348,-82.435 -117.652,-183.392 -11.218,-70.695 5.478,-171.391 121.304,-209.739 17.085,-8.267 110.739,-32.087 197.382,46.025 49.14,57.28 60.096,97.584 60.096,159.019 0,0 1.565,41.087 -29.739,103.695 -18.018,29.336 -44.235,66.648 -86.087,110.348 0,0 -39.913,42.652 -45,46.174 8.218,6.261 79.174,76.565 103.174,101.087 l 87.273,91.835 c 1.056,1.112 1.813,2.492 2.081,4.002 0.294,1.653 0.125,3.397 -2.074,2.99"
       style="fill:#fbe6c7;fill-opacity:1;fill-rule:nonzero;stroke:none"
       transform="matrix(1.3333333,0,0,-1.3333333,697.72813,1174.954)"
       clip-path="url(#clipPath2)" />
    <path
       id="path3"
       d="m 0,0 c 0,0 -37.174,50.869 -75.913,24.652 -36.073,-24.413 -36.439,-79.829 -15.655,-114.588 9.131,-15.272 27.186,-27.565 45.785,-25.499 14.087,1.565 31.403,6.261 45.783,28.957 1.467,3.619 9.293,2.25 8.511,-2.25 -2.02,-11.618 -13.242,-24.259 -21.44,-31.862 -29.334,-27.204 -78.68,-19.292 -105.714,7.731 -31.83,31.817 -32.605,87.611 -8.701,123.894 10.802,16.396 30.109,34.867 50.909,36.443 17.218,1.305 36.261,2.609 59.739,-9.652 4.435,-2.609 8.283,-1.63 9.848,0.261 1.565,1.891 8.609,9.652 12.783,9.456 1.304,-0.13 1.174,-0.065 1.304,-1.956 C 7.37,43.696 4.565,7.304 3.261,3.391 2.478,0.783 1.956,0.13 0,0"
       style="fill:#fbe6c7;fill-opacity:1;fill-rule:nonzero;stroke:none"
       transform="matrix(1.3333333,0,0,-1.3333333,1045.5543,765.91053)"
       clip-path="url(#clipPath4)" />
    <path
       id="path5"
       d="m 0,0 15,-15.913 c 0,0 0.522,0.391 0.522,-4.174 0,-4.565 0.13,-140.087 0.13,-140.087 0,0 -0.782,-4.043 -2.739,-6.391 -1.956,-2.348 -12.522,-11.087 -11.348,-15.131 3.652,-0.13 61.305,0 61.305,0 0,0 0,2.739 -2.87,5.218 -2.87,2.478 -11.739,12.521 -11.739,12.521 0,0 -1.304,1.435 -1.174,5.87 0.13,4.435 1.337,138.13 1.337,138.13 0,0 0.293,2.837 1.956,4.305 1.664,1.467 12.327,12.228 13.011,14.087 0.294,1.663 -0.293,2.543 -4.304,2.641 -4.011,0.098 -58.304,0 -58.304,0 0,0 -1.076,0.098 -0.783,-1.076"
       style="fill:#fbe6c7;fill-opacity:1;fill-rule:nonzero;stroke:none"
       transform="matrix(1.3333333,0,0,-1.3333333,1072.1629,704.34533)"
       clip-path="url(#clipPath6)" />
    <path
       id="path7"
       d="m 0,0 15,-15.913 c 0,0 0.522,0.391 0.522,-4.174 0,-4.565 0.13,-140.087 0.13,-140.087 0,0 -0.782,-4.043 -2.739,-6.391 -1.956,-2.348 -12.522,-11.087 -11.348,-15.131 3.652,-0.13 61.305,0 61.305,0 0,0 0,2.739 -2.87,5.218 -2.87,2.478 -11.739,12.521 -11.739,12.521 0,0 -1.304,1.435 -1.174,5.87 0.13,4.435 1.337,138.13 1.337,138.13 0,0 0.293,2.837 1.956,4.305 1.663,1.467 12.327,12.228 13.011,14.087 0.294,1.663 -0.293,2.543 -4.304,2.641 -4.011,0.098 -58.304,0 -58.304,0 0,0 -1.076,0.098 -0.783,-1.076"
       style="fill:#fbe6c7;fill-opacity:1;fill-rule:nonzero;stroke:none"
       transform="matrix(1.3333333,0,0,-1.3333333,1811.0037,704.34533)"
       clip-path="url(#clipPath8)" />
    <path
       id="path9"
       d="m 0,0 -4.467,-38.403 c -0.007,-0.063 0.009,-0.122 0.054,-0.166 0.467,-0.465 3.363,-3.007 6.587,1.829 3.521,5.282 12.521,18.391 17.021,18.587 4.275,0.186 30.094,0.901 32.664,0.972 0.117,0.004 0.205,-0.091 0.205,-0.208 l -0.651,-144.415 c 0,-0.056 -0.023,-0.11 -0.064,-0.149 l -17.528,-16.749 c -0.011,-0.011 -0.018,-0.018 -0.027,-0.031 -0.151,-0.233 -1.972,-3.126 0.532,-3.377 2.547,-0.254 62.557,-0.012 65.375,0 0.07,0 0.128,0.032 0.165,0.091 0.243,0.391 1.013,1.993 -1.366,3.692 -2.235,2.011 -4.384,4.122 -6.554,6.203 -1.367,1.312 -2.733,2.625 -4.097,3.94 -1.335,1.287 -2.855,2.492 -4.073,3.884 -0.089,0.102 -0.176,0.205 -0.259,0.312 -1.188,1.538 -1.027,4.048 -0.93,5.878 0.26,4.957 1.043,142.37 1.043,142.174 0,-0.17 22.487,-0.093 28.224,-0.07 0.892,0.003 1.757,-0.268 2.483,-0.787 3.057,-2.186 11.416,-8.85 16.314,-19.441 0.567,-1.225 1.47,-2.289 2.683,-2.88 1.694,-0.826 3.858,-0.951 4.035,3.646 0.288,7.478 -1.68,31.778 -2.219,34.86 -0.016,0.096 -0.09,0.164 -0.187,0.167 C 124.322,-0.061 5.43,0.173 0.199,0.183 0.094,0.184 0.012,0.105 0,0"
       style="fill:#fbe6c7;fill-opacity:1;fill-rule:nonzero;stroke:none"
       transform="matrix(1.3333333,0,0,-1.3333333,1185.3519,703.09773)"
       clip-path="url(#clipPath10)" />
    <path
       id="path11"
       d="m 0,0 c 0,0 15.652,-14.424 17.609,-17.946 1.956,-3.521 50.674,-88.239 50.674,-88.239 v -57.714 c 0,-0.503 -0.202,-0.985 -0.559,-1.338 L 53.022,-179.75 c 0,0 -0.881,-1.308 -0.098,-2.659 1.956,-0.178 63.293,0 63.293,0 0,0 0.196,2.953 -3.619,6.67 -3.271,3.187 -9.13,9.825 -10.736,11.654 -0.271,0.309 -0.414,0.703 -0.411,1.114 l 0.484,56.46 c 0,0 27.652,46.435 32.869,59.478 6.261,12.522 18.783,33.392 22.696,37.044 C 161.413,-6.337 169.239,0 169.239,0 h -49.565 c 2.867,-3.889 5.735,-7.779 8.602,-11.668 0.509,-0.69 1.041,-1.369 1.529,-2.074 1.723,-2.487 0.456,-5.873 -0.87,-8.247 -2.87,-6.261 -34.696,-61.435 -34.696,-61.435 0,0 -34.696,56.218 -37.696,67.826 0,0 -0.652,1.826 1.696,5.478 2.348,3.653 6.783,8.479 6.783,8.479 0,0 2.087,3 -2.609,3.261 C 56.674,1.75 0,0 0,0"
       style="fill:#fbe6c7;fill-opacity:1;fill-rule:nonzero;stroke:none"
       transform="matrix(1.3333333,0,0,-1.3333333,1381.2935,702.85267)"
       clip-path="url(#clipPath12)" />
    <path
       id="path13"
       d="m 0,0 c 0.001,-0.001 17.478,-18.783 17.478,-18.783 0,0 0.261,-138.5 0.261,-138.521 0.004,-1.938 -1.113,-4.372 -2.05,-6.057 -1.029,-1.851 -2.449,-3.356 -3.925,-4.865 -1.84,-1.879 -3.714,-3.723 -5.627,-5.527 -0.694,-0.654 -1.384,-1.312 -2.079,-1.965 -0.418,-0.394 -0.708,-0.903 -0.818,-1.467 -0.263,-1.335 -0.482,-3.709 1.195,-3.989 2.348,-0.391 89.022,0.783 94.5,0 5.478,-0.783 16.695,-2.674 19.435,-1.239 1.239,0.522 1.826,0.456 2.934,4.956 1.109,4.5 5.87,32.544 6.392,45.718 -0.467,2.646 -3.653,3.522 -5.739,-0.783 -2.087,-4.304 -13.566,-28.956 -30.131,-31.695 -7.658,-0.884 -15.374,-1.546 -23.084,-1.674 -7.926,-0.132 -19.568,-0.362 -19.568,10.282 0,5.348 -0.717,134.87 -0.717,134.87 0,0 0.586,2.348 2.608,4.5 2.019,2.149 13.73,13.73 13.761,13.761 0.402,0.397 0.283,1.411 0.049,1.834 -0.82,1.477 -3.014,1.352 -4.451,1.338 C 59.599,0.686 58.774,0.698 57.948,0.699 55.958,0.7 53.968,0.689 51.978,0.675 49.393,0.657 46.809,0.632 44.225,0.605 41.286,0.575 38.347,0.541 35.409,0.505 32.355,0.467 29.301,0.427 26.247,0.386 23.317,0.346 20.388,0.305 17.458,0.263 14.892,0.226 12.326,0.189 9.76,0.15 7.797,0.121 5.835,0.091 3.872,0.061 2.751,0.043 1.631,0.026 0.511,0.008 0.446,0.007 0.047,-0.051 0,0"
       style="fill:#fbe6c7;fill-opacity:1;fill-rule:nonzero;stroke:none"
       transform="matrix(1.3333333,0,0,-1.3333333,1627.1195,702.2584)"
       clip-path="url(#clipPath14)" />
    <path
       id="path15"
       d="m 0,0 c 0,0 21.261,-21.829 21.391,-22.482 0.188,-0.938 0.019,-2.078 0.02,-3.027 0.004,-2.68 0,-5.359 -0.005,-8.038 -0.006,-3.997 -0.015,-7.993 -0.025,-11.99 -0.012,-4.962 -0.026,-9.924 -0.041,-14.885 -0.016,-5.575 -0.034,-11.149 -0.052,-16.723 -0.019,-5.834 -0.038,-11.669 -0.058,-17.503 -0.02,-5.742 -0.04,-11.484 -0.061,-17.226 -0.018,-5.298 -0.038,-10.595 -0.057,-15.892 -0.016,-4.5 -0.033,-9 -0.05,-13.5 -0.012,-3.35 -0.025,-6.7 -0.038,-10.05 l -0.012,-3.174 c -0.023,-6.002 -3.385,-12.126 -7.642,-16.231 -4.877,-4.702 -8.358,-8.785 -9.064,-11.833 -0.123,-0.53 0.336,-1.013 0.878,-0.973 7.628,0.567 43.634,0.25 47.37,0.214 0.21,-0.002 0.369,0.18 0.342,0.388 -0.108,0.824 -0.89,2.4 -0.951,2.504 -1.12,1.898 -2.774,3.398 -4.317,4.943 -1.629,1.631 -3.06,3.433 -4.527,5.208 -1.918,2.32 -4.498,4.802 -5.534,7.675 -1.299,3.603 -0.913,7.714 -0.888,11.511 0.024,3.548 0.05,7.096 0.076,10.645 0.036,4.84 0.073,9.681 0.11,14.522 0.043,5.554 0.087,11.108 0.13,16.662 0.045,5.686 0.09,11.373 0.135,17.06 0.042,5.239 0.084,10.479 0.126,15.718 0.034,4.212 0.068,8.425 0.102,12.637 0.021,2.605 0.042,5.21 0.063,7.816 0.004,0.514 -0.1,1.167 0.014,1.673 0,0 1.174,5.239 5.282,0 4.109,-5.239 92.805,-129.667 92.805,-129.667 h 12.261 v 162.71 L 167.087,0 h -54.261 l 16.957,-15.569 0.521,-97.826 L 46.304,0 Z"
       style="fill:#fbe6c7;fill-opacity:1;fill-rule:nonzero;stroke:none"
       transform="matrix(1.3333333,0,0,-1.3333333,1920.1629,701.3264)"
       clip-path="url(#clipPath16)" />
    <path
       id="path17"
       d="m 0,0 14.609,-16.511 v -146.087 c 0,0 -10.565,-12.522 -12,-14.348 -1.435,-1.826 -1.957,-3.652 -1.305,-4.565 1.957,-0.522 94.24,0 94.24,0 0,0 23.086,-2.724 27.195,-1.362 1.174,3.906 6.457,41.275 6.261,47.145 -2.935,0.978 -6.652,-1.174 -9.978,-8.218 -3.326,-7.043 -15.457,-20.934 -20.739,-21.717 -5.283,-0.783 -41.674,-0.391 -41.674,-0.391 0,0 -9.392,2.348 -8.805,8.217 v 60.848 c 0,0 29.544,2.543 35.022,-0.196 4.109,-3.717 9.587,-17.804 18,-15.652 0.196,6.065 0.587,45.978 0.587,45.978 0,0 -4.5,1.761 -8.413,-2.739 -3.913,-4.5 -9.783,-11.152 -21.13,-11.152 -11.348,0 -24.848,0.196 -25.24,1.37 -0.195,4.891 -0.978,65.543 -0.978,65.543 l 44.022,-0.196 c 0,0 9.391,-0.978 15.848,-9.978 6.456,-9 9.195,-14.282 11.348,-14.478 2.152,-0.196 3.13,-0.457 3.13,5.152 0,5.609 -1.826,33.616 -1.696,34.482 -1.956,0.214 -117.782,0 -117.782,0 C 0.522,1.145 -0.777,0.878 0,0"
       style="fill:#fbe6c7;fill-opacity:1;fill-rule:nonzero;stroke:none"
       transform="matrix(1.3333333,0,0,-1.3333333,2166.9455,702.85267)"
       clip-path="url(#clipPath18)" />
    <path
       id="path19"
       d="m 0,0 c 0.367,0.142 1.072,3.432 1.225,3.841 1.153,3.088 2.625,6.07 4.416,8.838 4.985,7.705 12.75,13.527 22.109,14.293 8.294,0.679 19.248,-3.589 25.504,-9.198 C 60.79,11.017 61.419,0.762 59.478,-8.609 57.717,-26.804 36,-36.978 22.304,-43.043 c -2.934,-2.348 -3.326,-6.261 3.131,-7.435 6.456,-1.174 42.652,-1.565 44.609,-46.174 0.144,-7.863 -2.743,-15.542 -7.624,-21.66 -4.687,-5.874 -11.207,-10.411 -18.5,-12.349 -4.131,-1.098 -8.485,-1.148 -12.701,-0.567 -3.785,0.522 -8.108,1.285 -11.058,3.907 -2.77,2.462 -3.695,6.14 -3.628,9.734 -0.67,8.034 -1.769,20.435 -12.974,21.525 -4.289,0.417 -8.551,-0.984 -11.929,-3.659 -5.862,-4.64 -12.134,-13.955 -2.097,-27.746 3.326,-3.816 23.674,-27.196 71.413,-11.544 39.815,13.598 62.315,74.837 -1.272,102.033 0,0 32.674,9.587 33.065,38.152 C 92.814,6.635 90.086,13.101 87.516,17.76 83.375,25.268 76.897,31.12 69.175,34.799 50.507,43.694 25.378,41.96 7.96,30.504 3.754,27.737 0.043,24.229 -2.773,20.043 -4.313,17.754 -5.577,15.287 -6.56,12.711 -7.34,10.668 -9.349,6.287 -8.804,4.109 -8.609,3.326 -3.815,-1.467 0,0"
       style="fill:#fbe6c7;fill-opacity:1;fill-rule:nonzero;stroke:none"
       transform="matrix(1.3333333,0,0,-1.3333333,894.7716,1164.5193)"
       clip-path="url(#clipPath20)" />
    <path
       id="path21"
       d="m 0,0 c -27.587,1.37 -34.239,23.674 -36.587,33.652 -2.152,25.631 19.565,40.109 19.565,40.109 0,0 2.739,-1.565 14.087,-5.87 C 40.109,49.5 35.804,38.543 36.196,27.587 33.261,5.674 9.391,0.196 0,0 m 62.336,44.118 c -0.49,6.701 -2.259,13.137 -5.781,18.9 C 50.8,72.434 41.584,79.315 32.16,84.742 22.924,90.061 13.029,94.199 3,97.761 c -22.174,10.435 -38.609,16.956 -32.87,40.695 4.002,16.554 22.425,23.454 37.696,18.715 13.137,-4.077 22.962,-18.052 24.652,-31.236 1.305,-10.174 -2.999,-21.2 -7.565,-28.174 -0.521,-2.868 -1.043,-5.736 -1.043,-5.739 0.023,0.13 2.968,0.762 3.185,0.831 2.696,0.862 5.296,2.049 7.73,3.492 7.822,4.636 13.519,11.999 16.297,20.642 7.544,23.477 -11.792,46.975 -33.965,52.61 -5.212,1.325 -10.446,1.66 -15.797,1.795 -7.711,0.195 -50.233,-1.631 -53.624,-47.544 0,-9.913 2.869,-32.369 24.521,-44.88 0,0 -35.478,-13.555 -32.087,-49.294 1.305,-8.348 3.914,-40.696 60.783,-44.609 3.413,-0.235 7.154,0.406 10.53,0.835 4.69,0.597 9.347,1.5 13.893,2.801 10.335,2.955 20.344,8.091 27.332,16.449 9.113,10.898 10.67,25.288 9.668,38.968"
       style="fill:#fbe6c7;fill-opacity:1;fill-rule:nonzero;stroke:none"
       transform="matrix(1.3333333,0,0,-1.3333333,1138.9456,1339.0409)"
       clip-path="url(#clipPath22)" />
  </g>
</svg>
